<?xml version="1.0"?>
<svg xmlns="http://www.w3.org/2000/svg" height="512px" viewBox="0 -61 512 512" width="512px"><path d="m467 0h-421c-24.8125 0-46 20.1875-46 45v300c0 24.8125 21.1875 45 46 45h421c24.8125 0 45-20.1875 45-45v-300c0-24.8125-20.1875-45-45-45zm-166 75c0-8.289062 6.710938-15 15-15s15 6.710938 15 15v120c0 8.289062-6.710938 15-15 15s-15-6.710938-15-15zm-118.417969 6.710938c-3.707031-7.414063-.703125-16.421876 6.707031-20.128907 7.398438-3.660156 16.40625-.71875 20.128907 6.707031l16.582031 33.164063 16.582031-33.164063c3.707031-7.425781 12.730469-10.367187 20.128907-6.707031 7.410156 3.707031 10.414062 12.714844 6.707031 20.128907l-26.644531 53.289062 26.644531 53.289062c3.707031 7.414063.703125 16.421876-6.707031 20.128907-7.488282 3.71875-16.441407.640625-20.128907-6.707031l-16.582031-33.164063-16.582031 33.164063c-3.6875 7.347656-12.640625 10.425781-20.128907 6.707031-7.410156-3.707031-10.414062-12.714844-6.707031-20.128907l26.644531-53.289062zm-121.582031 113.289062v-120c0-8.289062 6.710938-15 15-15h60c8.289062 0 15 6.710938 15 15s-6.710938 15-15 15h-45v30h45c8.289062 0 15 6.710938 15 15s-6.710938 15-15 15h-45v30h45c8.289062 0 15 6.710938 15 15s-6.710938 15-15 15h-60c-8.289062 0-15-6.710938-15-15zm295.585938 100.625-29.980469 29.980469c-2.929688 2.929687-6.769531 4.394531-10.605469 4.394531s-7.675781-1.464844-10.605469-4.394531c-9.046875-9.046875-3.527343-17.683594 4.394531-25.605469h-173.789062c-8.289062 0-15-6.707031-15-15 0-8.289062 6.710938-15 15-15h173.789062c-7.921874-7.921875-13.441406-16.558594-4.394531-25.605469 5.859375-5.859375 15.351563-5.859375 21.210938 0l29.980469 29.984375c5.867187 5.847656 5.84375 15.417969 0 21.246094zm79.414062-205.625h-15v105c0 8.289062-6.710938 15-15 15s-15-6.710938-15-15v-105h-15c-8.289062 0-15-6.710938-15-15s6.710938-15 15-15h60c8.289062 0 15 6.710938 15 15s-6.710938 15-15 15zm0 0" fill="#D80027"/></svg>
